<?xml version="1.0" encoding="UTF-8"?>
<svg width="14px" height="14px" viewBox="0 0 14 14" version="1.1" xmlns="http://www.w3.org/2000/svg" xmlns:xlink="http://www.w3.org/1999/xlink">
    <!-- Generator: sketchtool 57.1 (101010) - https://sketch.com -->
    <title>7572CFF9-77BB-49F9-B5A2-B8BC9E9200A2</title>
    <desc>Created with sketchtool.</desc>
    <g id="Page-1" stroke="none" stroke-width="1" fill="none" fill-rule="evenodd">
        <g id="4.2-Upload-Document---Uploaded" transform="translate(-584.000000, -530.000000)" fill="#83F153" fill-rule="nonzero">
            <g id="List" transform="translate(584.000000, 530.000000)">
                <path d="M8.904,4.753 L5.901,7.763 L4.746,6.608 C4.57492708,6.40823669 4.30631712,6.32122264 4.05060672,6.38273291 C3.79489632,6.44424317 3.59524317,6.64389632 3.53373291,6.89960672 C3.47222264,7.15531712 3.55923669,7.42392708 3.759,7.595 L5.404,9.247 C5.53610318,9.37803056 5.71493791,9.45107573 5.901,9.45001172 C6.08463791,9.44922676 6.26061755,9.37632091 6.391,9.247 L9.891,5.747 C10.0235189,5.61556338 10.0980588,5.43664628 10.0980588,5.25 C10.0980588,5.06335372 10.0235189,4.88443662 9.891,4.753 C9.61797378,4.48159348 9.17702622,4.48159348 8.904,4.753 L8.904,4.753 Z M7,0 C3.13400675,0 0,3.13400675 0,7 C0,10.8659932 3.13400675,14 7,14 C10.8659932,14 14,10.8659932 14,7 C14,5.14348457 13.2625021,3.36300718 11.9497475,2.05025253 C10.6369928,0.737497883 8.85651543,0 7,0 Z M7,12.6 C3.9072054,12.6 1.4,10.0927946 1.4,7 C1.4,3.9072054 3.9072054,1.4 7,1.4 C10.0927946,1.4 12.6,3.9072054 12.6,7 C12.6,8.48521234 12.0100017,9.90959426 10.959798,10.959798 C9.90959426,12.0100017 8.48521234,12.6 7,12.6 Z" id="Shape-1"></path>
            </g>
        </g>
    </g>
</svg>