<?xml version="1.0" encoding="UTF-8"?>
<svg width="16px" height="16px" viewBox="0 0 16 16" version="1.1" xmlns="http://www.w3.org/2000/svg" xmlns:xlink="http://www.w3.org/1999/xlink">
    <!-- Generator: sketchtool 57.1 (101010) - https://sketch.com -->
    <title>C43332E9-E367-4600-B710-550BE7F5E5E2</title>
    <desc>Created with sketchtool.</desc>
    <g id="Page-1" stroke="none" stroke-width="1" fill="none" fill-rule="evenodd">
        <g id="4.-1-Upload-Document---Delete-Files-" transform="translate(-581.000000, -527.000000)" fill="#F19411" fill-rule="nonzero">
            <g id="times-circle" transform="translate(581.000000, 527.000000)">
                <path d="M10.6981818,5.30181818 C10.5616243,5.16413625 10.3757364,5.08669213 10.1818182,5.08669213 C9.98789997,5.08669213 9.80201207,5.16413625 9.66545455,5.30181818 L8,6.97454545 L6.33454545,5.30181818 C6.04936569,5.01663844 5.58699796,5.01663845 5.3018182,5.3018182 C5.01663845,5.58699796 5.01663844,6.04936569 5.30181818,6.33454545 L6.97454545,8 L5.30181818,9.66545455 C5.16413625,9.80201207 5.08669213,9.98789997 5.08669213,10.1818182 C5.08669213,10.3757364 5.16413625,10.5616243 5.30181818,10.6981818 C5.43837571,10.8358637 5.62426361,10.9133079 5.81818182,10.9133079 C6.01210003,10.9133079 6.19798793,10.8358637 6.33454545,10.6981818 L8,9.02545455 L9.66545455,10.6981818 C9.80201207,10.8358637 9.98789997,10.9133079 10.1818182,10.9133079 C10.3757364,10.9133079 10.5616243,10.8358637 10.6981818,10.6981818 C10.8358637,10.5616243 10.9133079,10.3757364 10.9133079,10.1818182 C10.9133079,9.98789997 10.8358637,9.80201207 10.6981818,9.66545455 L9.02545455,8 L10.6981818,6.33454545 C10.8358637,6.19798793 10.9133079,6.01210003 10.9133079,5.81818182 C10.9133079,5.62426361 10.8358637,5.43837571 10.6981818,5.30181818 Z M13.1418182,2.85818182 C11.315822,0.967588477 8.61179715,0.209362929 6.06903764,0.87492977 C3.52627814,1.54049661 1.54049661,3.52627814 0.87492977,6.06903764 C0.209362929,8.61179715 0.967588477,11.315822 2.85818182,13.1418182 C4.68417797,15.0324115 7.38820285,15.7906371 9.93096236,15.1250702 C12.4737219,14.4595034 14.4595034,12.4737219 15.1250702,9.93096236 C15.7906371,7.38820285 15.0324115,4.68417797 13.1418182,2.85818182 Z M12.1163636,12.1163636 C10.1548241,14.0800849 7.07931645,14.3848115 4.77056141,12.8441985 C2.46180638,11.3035855 1.56276276,8.34667384 2.62320974,5.78166108 C3.68365671,3.21664831 6.40827334,1.7578577 9.13091414,2.2973624 C11.8535549,2.8368671 13.8159993,5.22442195 13.8182152,8 C13.8234229,9.54433738 13.2106194,11.0265886 12.1163636,12.1163636 Z" id="Shape"></path>
            </g>
        </g>
    </g>
</svg>