<?xml version="1.0" encoding="UTF-8"?>
<svg width="16px" height="18px" viewBox="0 0 15 11" version="1.1" xmlns="http://www.w3.org/2000/svg" xmlns:xlink="http://www.w3.org/1999/xlink">
    <!-- Generator: sketchtool 57.1 (101010) - https://sketch.com -->
    <title>9A1EE202-DE4E-40FA-B601-5EEDBB13B018</title>
    <desc>Created with sketchtool.</desc>
    <g id="Page-1" stroke="none" stroke-width="1" fill="none" fill-rule="evenodd">
        <g id="4.2-Upload-Document---Uploaded" transform="translate(-585.000000, -510.000000)" fill="#83F153">
            <g id="List" transform="translate(585.000000, 510.000000)">
                <g id="check">
                    <path d="M13.7319463,0.295798324 C13.5441797,0.106485674 13.2885838,0 13.0219463,0 C12.7553087,0 12.4997129,0.106485674 12.3119463,0.295798324 L4.86194626,7.75579832 L1.73194626,4.61579832 C1.46935606,4.36213975 1.09138746,4.26783977 0.740417586,4.36842028 C0.389447714,4.46900078 0.11879724,4.7491812 0.0304175803,5.10342028 C-0.057962079,5.45765936 0.0493560493,5.83213976 0.311946264,6.08579832 L4.15194626,9.92579832 C4.33971286,10.115111 4.59530873,10.2215966 4.86194626,10.2215966 C5.1285838,10.2215966 5.38417966,10.115111 5.57194626,9.92579832 L13.7319463,1.76579832 C13.9371574,1.57648274 14.0538792,1.30999721 14.0538792,1.03079832 C14.0538792,0.751599434 13.9371574,0.485113908 13.7319463,0.295798324 Z" id="Path"></path>
                </g>
            </g>
        </g>
    </g>
</svg>