<?xml version="1.0" encoding="UTF-8"?>
<svg width="16px" height="18px" viewBox="0 0 16 18" version="1.1" xmlns="http://www.w3.org/2000/svg" xmlns:xlink="http://www.w3.org/1999/xlink">
    <!-- Generator: sketchtool 57.1 (101010) - https://sketch.com -->
    <title>D5599286-8301-419F-ACE5-F5C0886E22C9</title>
    <desc>Created with sketchtool.</desc>
    <g id="Page-1" stroke="none" stroke-width="1" fill="none" fill-rule="evenodd">
        <g id="4.-1-Upload-Document---Delete-Files-" transform="translate(-581.000000, -505.000000)" fill="#F19411" fill-rule="nonzero">
            <g id="trash-alt" transform="translate(581.000000, 505.000000)">
                <path d="M6.22222222,14.2222222 C6.713142,14.2222222 7.11111111,13.8242531 7.11111111,13.3333333 L7.11111111,8 C7.11111111,7.50908022 6.713142,7.11111111 6.22222222,7.11111111 C5.73130244,7.11111111 5.33333333,7.50908022 5.33333333,8 L5.33333333,13.3333333 C5.33333333,13.8242531 5.73130244,14.2222222 6.22222222,14.2222222 Z M15.1111111,3.55555556 L11.5555556,3.55555556 L11.5555556,2.66666667 C11.5555556,1.19390733 10.3616482,-4.4408921e-16 8.88888889,-4.4408921e-16 L7.11111111,-4.4408921e-16 C5.63835178,-4.4408921e-16 4.44444444,1.19390733 4.44444444,2.66666667 L4.44444444,3.55555556 L0.888888889,3.55555556 C0.397969111,3.55555556 0,3.95352467 0,4.44444444 C0,4.93536422 0.397969111,5.33333333 0.888888889,5.33333333 L1.77777778,5.33333333 L1.77777778,15.1111111 C1.77777778,16.5838704 2.97168511,17.7777778 4.44444444,17.7777778 L11.5555556,17.7777778 C13.0283149,17.7777778 14.2222222,16.5838704 14.2222222,15.1111111 L14.2222222,5.33333333 L15.1111111,5.33333333 C15.6020309,5.33333333 16,4.93536422 16,4.44444444 C16,3.95352467 15.6020309,3.55555556 15.1111111,3.55555556 Z M6.22222222,2.66666667 C6.22222222,2.17574689 6.62019133,1.77777778 7.11111111,1.77777778 L8.88888889,1.77777778 C9.37980867,1.77777778 9.77777778,2.17574689 9.77777778,2.66666667 L9.77777778,3.55555556 L6.22222222,3.55555556 L6.22222222,2.66666667 Z M12.4444444,15.1111111 C12.4444444,15.6020309 12.0464753,16 11.5555556,16 L4.44444444,16 C3.95352467,16 3.55555556,15.6020309 3.55555556,15.1111111 L3.55555556,5.33333333 L12.4444444,5.33333333 L12.4444444,15.1111111 Z M9.77777778,14.2222222 C10.2686976,14.2222222 10.6666667,13.8242531 10.6666667,13.3333333 L10.6666667,8 C10.6666667,7.50908022 10.2686976,7.11111111 9.77777778,7.11111111 C9.286858,7.11111111 8.88888889,7.50908022 8.88888889,8 L8.88888889,13.3333333 C8.88888889,13.8242531 9.286858,14.2222222 9.77777778,14.2222222 Z" id="Shape"></path>
            </g>
        </g>
    </g>
</svg>